<svg xmlns="http://www.w3.org/2000/svg" xmlns:xlink="http://www.w3.org/1999/xlink" id="Layer_1" x="0px" y="0px" viewBox="0 0 323 367" style="enable-background:new 0 0 323 367;" xml:space="preserve"><style type="text/css">	.st0{fill:#FFFFFF;}	.st1{fill:#3D083D;}	.st2{fill:#28256D;}	.st3{fill:#782779;}	.st4{fill:#FF4F49;}	.st5{fill:#554160;}</style><g>	<circle class="st0" cx="161.5" cy="183.5" r="147.4"></circle>	<g id="Livello_1-2">		<g id="Livello_2-2">			<g id="Livello_1-2-2">				<path class="st1" d="M81.6,202c0,0-1.1-2.4-2-4.8c-0.8-2.1-1.3-4.3-1.4-4.4c-0.8-1-7.5-0.9-7.8-0.9s1.5,7.1,2,7.4     c1.4,0.1,2.8,0.2,4.2,0.4C78,200.2,81.6,202,81.6,202z"></path>				<path class="st1" d="M93.6,190c0,0,1.2-5.2,2.6-8.4c-0.7-1.1-1.4-2.2-2.3-3.2c-0.7-0.9-2.2-2.2-2.8-2.2c-0.6,0-2.9,3.2-3.7,6.3     c0,0,1.3,1.4,2.3,2.5C90.6,186.2,93.6,190,93.6,190z"></path>				<path class="st2" d="M102.3,151.4c0,0,3.6-2.7,6.2-1.7c2.5,0.9,2.6,4.1,0,6.8c-3,3-5.2,3.4-6.7,3.3c-1.2-0.1-3.1-0.6-3.2-2.2     C98.5,155.9,99.6,153.6,102.3,151.4z"></path>				<path class="st2" d="M75.1,174.7c1.6-1.6,2.3-3.9,1.9-6.2c-0.8-4.4-2.7-4.7-3.7-4.5c-1,0.1-4.4,1.9-4.1,4.6     S72.2,174.9,75.1,174.7z"></path>				<path class="st3" d="M102.6,219.1c0,0,8-3.9,12.4-7.7c6-5,8.6-9.5,8.6-9.5s10.7,0.3,14.1-0.8s4.2-2.4,4.2-2.4s-1.5,9.2-9.5,15.6     C124.6,220.8,112.2,221.2,102.6,219.1z"></path>				<path class="st1" d="M124.6,200.6c0,0,1.1-1.9,1.6-2.8c0.8-1.6,1.5-3.3,2.1-5h6.9c0,0-0.4,4.7-2,7.7     C133.2,200.4,129.2,200.7,124.6,200.6z"></path>				<path class="st1" d="M110.4,193.2c0,0,0.3-4.1,0-6.5c-0.3-2.3-0.7-4.1-0.7-4.1s3.8-2.4,5.5-2.5l1.7,6.8L110.4,193.2z"></path>				<path class="st2" d="M130.4,174.3c0,0,2-5.9,4.8-5.7s4.7,1.2,5.1,2.9c0.4,1.7-0.1,2.1-0.9,2.9c-0.8,0.7-4.3,3.7-6.8,3.1     C130.1,176.8,130.4,175.7,130.4,174.3z"></path>				<path class="st3" d="M100.1,219c-4.2-1.4-8-3.8-11.1-7c-6-6.2-4.9-6.1-6.5-7.6c-1.6-1.5-4.7-2.6-6.1-3.1     c-1.5-0.5-6.2-0.4-7.2-0.9c-1-0.5-5.3-3.8-5.6-4.5c0,0,0.4,7.3,2.7,11.6c2.3,4.3,7.7,11.7,18.6,12.4     C95.9,220.6,100.1,219,100.1,219z"></path>				<path class="st3" d="M99.9,217.3c0,0-3.9-6-5.5-12.9c-1-4-1.3-8.2-1-12.3c0,0-2.6-3.5-4.7-6c-1.6-1.9-5.4-5.7-5.4-5.7     s-0.4-10.5,0.5-16.1c0.9-5.6,3.7-10.6,3.7-10.6s-0.1-0.1-0.3-0.3c-0.5-0.5-1-1-1-1l-0.3,0.5c0,0-4.9,9.6-6.5,14.4     c-1.5,4.8-1.8,10.3-1.8,10.3s-4.8-1.8-6.7-2.6c-1.9-0.7-3.9-1.1-5.4-1c-0.6,0.1-1.8,1.1-1.8,1.1s5.7,3.8,7,4.6s7.7,4.8,7.7,4.8     s0.8,8,3.9,15.5c2.1,5.2,7,10.4,9,12.1C94.4,214.9,98.8,217,99.9,217.3z"></path>				<path class="st3" d="M101.3,217c0,0,6.1-10.2,7.4-22c1.4-11.8-2.8-19.4-5.2-21.3c0,0-8.7,7.8-8.9,20.9     C94.4,207.5,101.3,217,101.3,217z"></path>				<path class="st2" d="M100,175.6c0,0,1-1.3,1.6-1.8c0.8-0.9,1.9-1.9,1.9-1.9c0.4,0.3,0.8,0.6,1.1,0.9c1,1,1.9,2.1,2.5,3.4     c0,0,1-2.2,2.6-5.6c1.4-3.1,3.4-5.8,6-8c2.1-1.8,4.2-2.8,5.2-2.8s2.6-0.7,3.2-1c0.3-0.2,0.6-0.4,0.8-0.7c0,0-0.2-1-0.2-1.9     c-0.1-0.7-0.1-1.3-0.1-1.4c0-0.4-7.5,3.8-10.3,5.4c-2.8,1.7-8,5.6-8,5.6l-2.8-4.7c0,0-0.2,0-0.7,0.1c-0.2,0-0.4,0-0.6,0     c-0.3,0.4-0.6,0.9-0.9,1.3c-0.5,0.6-1.9,1.9-1.9,1.9s-3.3-3.9-4.7-6s-4.5-5.9-4.5-5.9s0.1-3.5-0.5-4.3c-0.6-0.8-2.3-2-3.5-1.1     s-0.1,2.7,0.4,3.7c0.6,1,1.9,1.6,2.3,2.7c0.4,1.1,4.5,8.8,6,11.9S100,175.6,100,175.6z"></path>				<path class="st3" d="M102.5,217.7c2-3.5,3.7-7.2,5.1-11c1.3-3.6,2.2-7.4,2.6-11.2c0,0,5.6-5.8,7.8-7.8c2.3-2,3.7-2.6,4.7-3.9     c0.9-1.3,2.4-10,2.6-13.4c0.2-3.5,0.9-11.8,0.9-11.8s-0.2-1.3-0.4-2.5c-0.1-1.2-0.3-3.9,1.5-3.9s1.4,2.3,1.4,3.4     c-0.1,0.9-0.3,1.8-0.6,2.7c0,0,0.4,9.8,0.6,12.4s0.6,9.6,0.6,9.6c2.3-0.4,4.6-0.8,6.9-0.9c2-0.1,6.2-0.5,7.4,0.1     c1.5,0.7,1.2,1.7,1.2,1.7s-7,2.7-8.7,3.4c-1.7,0.7-7.6,3.6-7.6,3.6s-2.4,7.2-3.8,9.7c-2.5,4.7-5.9,8.8-9.9,12.3     C109.7,214.1,102.5,217.7,102.5,217.7z"></path>			</g>		</g>		<path class="st4" d="M161.6,173.7h4.2l0.5,18.9h0.1l6.7-18.9h5.1l0.7,18.9h0.1l6.5-18.9h4.2l-8.7,23.3h-5.4l-0.6-18.5h-0.1   l-6.6,18.5h-5.3L161.6,173.7z"></path>		<path class="st4" d="M186.6,190.7c0-5.7,3.2-11,8.7-11c3.9,0,6.1,2.6,6.1,6.7c0,5.7-3.3,10.9-8.7,10.9   C188.9,197.4,186.6,195,186.6,190.7z M197.8,186.7c0-2.3-1-3.7-2.8-3.7c-3,0-4.7,4.2-4.7,7.4c0,2.3,1,3.8,2.7,3.8   C196.1,194.2,197.8,190,197.8,186.7L197.8,186.7z"></path>		<path class="st4" d="M204.9,180.2h3.1v2.5h0c1-1.8,2.9-2.9,5-2.9c2.2,0,3.6,1.2,4,3.1h0c1.1-1.9,3.1-3,5.2-3.1c3,0,4.4,2,3.9,5.3   l-1.9,11.8h-3.7l1.8-11.5c0.2-1.6-0.4-2.4-1.9-2.4c-2,0-3.4,1.5-3.8,3.9l-1.6,10h-3.7l1.8-11.5c0.2-1.6-0.4-2.4-1.9-2.4   c-2,0-3.4,1.5-3.8,3.9l-1.6,10h-3.7L204.9,180.2z"></path>		<path class="st4" d="M227.4,190.5c0-5.6,3.1-10.8,8.4-10.8c3.6,0,5.7,2.4,5.7,6.4c0,1.2-0.2,2.4-0.5,3.5h-10   c-0.3,2.9,0.7,4.8,3.1,4.8c1.8,0,3.3-1.1,4-3.1l3.1,1.1c-1.1,3-4,5-7.2,4.9C229.9,197.4,227.4,194.8,227.4,190.5z M238,187.3   c0.2-2.7-0.2-4.7-2.5-4.7c-2,0-3.4,1.7-4,4.7H238z"></path>		<path class="st4" d="M256.9,184.9l-1.9,12h-3.7l1.8-11.6c0.3-1.7-0.3-2.5-1.6-2.5c-1.9,0-3.3,1.3-3.6,3.5l-1.7,10.5h-3.7l2.6-16.7   h3.1l0,2.3h0c1.1-1.7,2.9-2.7,4.9-2.7C256,179.9,257.5,181.7,256.9,184.9z"></path>		<path class="st5" d="M169.3,165.1l-0.7-3.1c-0.1-0.8-0.8-1.5-1.7-1.5h-1.4v7.1H161v-18.7h6.9c4.3,0,6.9,2.2,6.9,5.9   c0,2.3-1.3,4.2-3.5,4.8v0c1,0.4,1.4,1.3,1.6,2.3l0.4,2.2c0.1,0.6,0.3,0.9,0.7,0.9c0.4,0,0.7-0.3,0.9-0.6l0.9,2.1   c-0.9,0.9-2.2,1.4-3.5,1.4C170.8,168,169.7,166.8,169.3,165.1z M167.7,157.4c1.6,0,2.7-1,2.7-2.5c0-1.7-1-2.6-2.7-2.6h-2.2v5.2   H167.7z"></path>		<path class="st5" d="M176.7,160.8c0-4.3,2.3-7,6.1-7c3.5,0,5.8,2.6,5.8,6.8c0,0.5,0,0.9-0.1,1.4h-7.8c0.1,2,1,3.1,2.5,3.1   c1.2,0,2-0.7,2.3-2l3.4,0.7c-0.5,2.6-2.8,4.2-5.5,4.2C179.2,167.9,176.7,165.2,176.7,160.8z M184.7,159.7c-0.1-1.9-0.7-3-1.9-3   c-1.3,0-2,1.1-2.1,3H184.7z"></path>		<path class="st5" d="M190.2,163.4l3.5-0.5c0,1.5,0.8,2.4,2,2.4c1,0,1.7-0.5,1.7-1.3c0-0.8-0.6-1.3-1.9-1.7l-1.6-0.5   c-2.3-0.8-3.2-2-3.2-3.9c0-2.6,2-4.2,4.9-4.2c2.5,0,4.7,1.3,4.9,4.3l-3.6,0.4c0-1.4-0.6-2-1.5-2c-0.6,0-1.2,0.4-1.2,1.1   c0,0,0,0.1,0,0.1c0,0.8,0.6,1.2,1.9,1.7l1.6,0.6c2.3,0.8,3.5,2,3.5,3.9c0,2.7-2.3,4.3-5.5,4.3   C192.7,167.9,190.3,166.5,190.2,163.4z"></path>		<path class="st5" d="M202.9,150c0-1.3,1.1-2.4,2.4-2.4s2.4,1.1,2.4,2.4c0,1.4-0.9,2.3-2.4,2.3S202.9,151.4,202.9,150z    M203.2,154.1h4v13.4h-4V154.1z"></path>		<path class="st5" d="M209.8,148.1h4v19.5h-4V148.1z"></path>		<path class="st5" d="M215.9,150c0-1.3,1.1-2.4,2.4-2.4c1.3,0,2.4,1.1,2.4,2.4c0,1.4-0.9,2.3-2.4,2.3   C216.9,152.3,215.9,151.4,215.9,150z M216.3,154.1h4v13.4h-4L216.3,154.1z"></path>		<path class="st5" d="M222.4,160.8c0-4.3,2.3-7,6-7c3.5,0,5.8,2.6,5.8,6.8c0,0.5,0,0.9-0.1,1.4h-7.8c0.1,2,1,3.1,2.5,3.1   c1.2,0,2-0.7,2.3-2l3.4,0.7c-0.5,2.6-2.8,4.2-5.5,4.2C224.9,167.9,222.4,165.2,222.4,160.8z M230.4,159.7c-0.1-1.9-0.7-3-1.9-3   c-1.3,0-2,1.1-2.1,3H230.4z"></path>		<path class="st5" d="M247.6,157.8v9.8h-4v-9.1c0-1-0.5-1.5-1.3-1.5c-1.2,0-1.8,0.8-1.8,2.2v8.4h-4v-13.4h3.3l0.5,2.1h0   c0.7-1.5,2.2-2.4,3.8-2.4C246.2,153.8,247.6,155.3,247.6,157.8z"></path>		<path class="st5" d="M250.9,163.5l0-6.4h-2v-3h2v-3.5l4-0.9v4.3h3.8v3h-3.8v5.5c0,1.2,0.4,1.9,1.4,1.9c0.7,0,1.3-0.4,1.6-1.5   l1.4,2.4c-0.7,1.6-2,2.5-4,2.5C252.3,167.9,250.9,166.2,250.9,163.5z"></path>		<g>			<path class="st5" d="M159.5,208.8c0-3,1.8-4.9,4.6-4.9c2.8,0,4.6,1.9,4.6,4.9c0,2.9-1.8,4.9-4.6,4.9    C161.3,213.7,159.5,211.8,159.5,208.8z M166.8,208.8c0-2-1.1-3.3-2.7-3.3s-2.7,1.3-2.7,3.3c0,2,1.1,3.3,2.7,3.3    S166.8,210.8,166.8,208.8z"></path>			<path class="st5" d="M174.7,212.4l-0.5-1.7c-0.2-0.5-0.6-0.9-1-0.9H172v3.6h-1.9v-9.2h3.8c2,0,3.3,1.1,3.3,2.8    c0,1.2-0.8,2.1-2,2.4v0c0.5,0.2,0.7,0.6,0.8,1.1l0.3,1.3c0.1,0.3,0.2,0.5,0.4,0.5c0.2,0,0.4-0.1,0.6-0.4l0.5,0.9    c-0.4,0.5-1,0.8-1.7,0.8C175.4,213.7,174.9,213.1,174.7,212.4z M173.9,208.4c0.9,0,1.6-0.5,1.6-1.3c0-0.8-0.6-1.4-1.6-1.4H172    v2.7H173.9z"></path>			<path class="st5" d="M178.6,208.8c0-3,1.7-4.9,4.4-4.9c1.8,0,3.3,1.1,3.8,2.8l-1.8,0.4c-0.3-1-1.1-1.6-2-1.6    c-1.5,0-2.5,1.3-2.5,3.2c0,2,1.1,3.3,2.7,3.3c1.5,0,2.5-1,2.6-2.5h-3.6v-1.3h5.4v5.2h-1.4l-0.2-1.5h0c-0.6,1.1-1.8,1.8-3.2,1.8    C180.3,213.7,178.6,211.8,178.6,208.8z"></path>			<path class="st5" d="M191.6,204.2h2.3l3,9.2H195l-0.6-1.9h-3.3l-0.6,1.9h-1.9L191.6,204.2z M194.1,210.1l-1.3-4.2h0l-1.3,4.2    H194.1z"></path>			<path class="st5" d="M198.1,204.2h2.4l3.3,6.9h0v-6.9h1.8v9.2h-2.4l-3.3-6.9h0v6.9h-1.8V204.2z"></path>			<path class="st5" d="M207.3,204.2h1.9v9.2h-1.9V204.2z"></path>			<path class="st5" d="M210.6,210.5l1.8-0.3c0,1.2,0.9,2,2,2c1,0,1.6-0.5,1.6-1.3c0-0.6-0.4-1-1.4-1.2l-1.3-0.4    c-1.7-0.5-2.4-1.2-2.4-2.6c0-1.7,1.2-2.8,3.2-2.8c1.8,0,3.1,1.1,3.2,2.7l-1.7,0.4c0-1-0.7-1.6-1.5-1.6c-0.8,0-1.3,0.5-1.3,1.2    c0,0.6,0.4,1,1.3,1.2l1.3,0.3c1.7,0.5,2.5,1.3,2.5,2.6c0,1.7-1.3,2.9-3.5,2.9C212.1,213.7,210.6,212.5,210.6,210.5z"></path>			<path class="st5" d="M221.3,204.2h2.3l3,9.2h-1.9l-0.6-1.9h-3.3l-0.6,1.9h-1.9L221.3,204.2z M223.8,210.1l-1.3-4.2h0l-1.3,4.2    H223.8z"></path>			<path class="st5" d="M228.7,205.9h-2.5v-1.6h6.8v1.6h-2.5v7.6h-1.9V205.9z"></path>			<path class="st5" d="M234.3,204.2h1.9v9.2h-1.9V204.2z"></path>			<path class="st5" d="M237.6,208.8c0-3,1.8-4.9,4.6-4.9c2.8,0,4.6,1.9,4.6,4.9c0,2.9-1.8,4.9-4.6,4.9    C239.5,213.7,237.6,211.8,237.6,208.8z M244.9,208.8c0-2-1.1-3.3-2.7-3.3s-2.7,1.3-2.7,3.3c0,2,1.1,3.3,2.7,3.3    S244.9,210.8,244.9,208.8z"></path>			<path class="st5" d="M248.3,204.2h2.4l3.3,6.9h0v-6.9h1.8v9.2h-2.4l-3.3-6.9h0v6.9h-1.8V204.2z"></path>		</g>	</g></g></svg>